<svg width="1826" height="423" viewBox="0 0 1826 423" fill="none" xmlns="http://www.w3.org/2000/svg">
<rect width="1826" height="423" fill="white"/>
<rect x="1" y="90" width="1738" height="96" rx="5" fill="#F5F1FF" stroke="#DBCEFF" stroke-width="2"/>
<path d="M822.017 49.384C820.545 49.384 819.179 49.1067 817.921 48.552C816.662 47.976 815.574 47.2187 814.657 46.28L816.257 44.424C817.003 45.2133 817.878 45.8533 818.881 46.344C819.905 46.8133 820.961 47.048 822.049 47.048C823.435 47.048 824.513 46.7387 825.281 46.12C826.049 45.48 826.433 44.648 826.433 43.624C826.433 42.8987 826.273 42.3227 825.953 41.896C825.654 41.4693 825.238 41.1067 824.705 40.808C824.193 40.5093 823.606 40.2107 822.945 39.912L819.937 38.6C819.275 38.3227 818.614 37.96 817.953 37.512C817.313 37.064 816.769 36.488 816.321 35.784C815.894 35.08 815.681 34.216 815.681 33.192C815.681 32.1253 815.958 31.176 816.513 30.344C817.089 29.4907 817.878 28.8293 818.881 28.36C819.883 27.8693 821.014 27.624 822.273 27.624C823.531 27.624 824.694 27.8693 825.761 28.36C826.827 28.8293 827.734 29.448 828.481 30.216L827.041 31.944C826.401 31.3253 825.686 30.8453 824.897 30.504C824.129 30.1413 823.254 29.96 822.273 29.96C821.099 29.96 820.15 30.2373 819.425 30.792C818.721 31.3467 818.369 32.0933 818.369 33.032C818.369 33.6933 818.539 34.248 818.881 34.696C819.243 35.1227 819.691 35.4747 820.225 35.752C820.758 36.0293 821.302 36.2853 821.857 36.52L824.833 37.8C825.643 38.1413 826.369 38.5573 827.009 39.048C827.67 39.5173 828.193 40.104 828.577 40.808C828.961 41.4907 829.153 42.3547 829.153 43.4C829.153 44.5093 828.865 45.5227 828.289 46.44C827.713 47.336 826.891 48.0507 825.825 48.584C824.758 49.1173 823.489 49.384 822.017 49.384ZM833.03 55.56V33.448H835.206L835.43 35.24H835.526C836.23 34.6427 836.998 34.1307 837.83 33.704C838.684 33.2773 839.569 33.064 840.486 33.064C842.492 33.064 844.017 33.7893 845.062 35.24C846.108 36.6693 846.63 38.5893 846.63 41C846.63 42.7493 846.31 44.2533 845.67 45.512C845.052 46.7707 844.23 47.7307 843.206 48.392C842.204 49.0533 841.105 49.384 839.91 49.384C839.185 49.384 838.46 49.224 837.734 48.904C837.03 48.584 836.316 48.1467 835.59 47.592L835.654 50.312V55.56H833.03ZM839.462 47.176C840.742 47.176 841.798 46.632 842.63 45.544C843.484 44.4347 843.91 42.92 843.91 41C843.91 39.2933 843.59 37.9173 842.95 36.872C842.332 35.8053 841.286 35.272 839.814 35.272C839.153 35.272 838.481 35.4533 837.798 35.816C837.137 36.1787 836.422 36.7013 835.654 37.384V45.544C836.358 46.1413 837.041 46.568 837.702 46.824C838.364 47.0587 838.95 47.176 839.462 47.176ZM853.564 49.384C852.583 49.384 851.868 49.0853 851.42 48.488C850.994 47.8693 850.78 46.9947 850.78 45.864V26.216H853.404V46.056C853.404 46.4613 853.479 46.76 853.628 46.952C853.778 47.1227 853.948 47.208 854.14 47.208C854.226 47.208 854.3 47.208 854.364 47.208C854.45 47.1867 854.567 47.1653 854.716 47.144L855.068 49.128C854.898 49.2133 854.695 49.2773 854.46 49.32C854.226 49.3627 853.927 49.384 853.564 49.384ZM858.937 49V33.448H861.561V49H858.937ZM860.281 30.248C859.769 30.248 859.342 30.0987 859.001 29.8C858.681 29.48 858.521 29.0533 858.521 28.52C858.521 28.008 858.681 27.592 859.001 27.272C859.342 26.952 859.769 26.792 860.281 26.792C860.793 26.792 861.209 26.952 861.529 27.272C861.87 27.592 862.041 28.008 862.041 28.52C862.041 29.0533 861.87 29.48 861.529 29.8C861.209 30.0987 860.793 30.248 860.281 30.248ZM871.708 49.384C870.044 49.384 868.881 48.904 868.22 47.944C867.58 46.984 867.26 45.736 867.26 44.2V35.592H864.956V33.608L867.388 33.448L867.708 29.096H869.916V33.448H874.108V35.592H869.916V44.232C869.916 45.192 870.086 45.9387 870.428 46.472C870.79 46.984 871.42 47.24 872.316 47.24C872.593 47.24 872.892 47.1973 873.212 47.112C873.532 47.0053 873.82 46.9093 874.076 46.824L874.588 48.808C874.161 48.9573 873.692 49.0853 873.18 49.192C872.689 49.32 872.198 49.384 871.708 49.384ZM890.078 49.384C888.82 49.384 887.636 49.064 886.526 48.424C885.438 47.784 884.553 46.856 883.87 45.64C883.209 44.424 882.878 42.9627 882.878 41.256C882.878 39.5067 883.209 38.024 883.87 36.808C884.553 35.592 885.438 34.664 886.526 34.024C887.636 33.384 888.82 33.064 890.078 33.064C891.358 33.064 892.542 33.384 893.63 34.024C894.718 34.664 895.593 35.592 896.254 36.808C896.937 38.024 897.278 39.5067 897.278 41.256C897.278 42.9627 896.937 44.424 896.254 45.64C895.593 46.856 894.718 47.784 893.63 48.424C892.542 49.064 891.358 49.384 890.078 49.384ZM890.078 47.208C891.422 47.208 892.5 46.664 893.31 45.576C894.142 44.4667 894.558 43.0267 894.558 41.256C894.558 39.464 894.142 38.0133 893.31 36.904C892.5 35.7947 891.422 35.24 890.078 35.24C888.756 35.24 887.678 35.7947 886.846 36.904C886.014 38.0133 885.598 39.464 885.598 41.256C885.598 43.0267 886.014 44.4667 886.846 45.576C887.678 46.664 888.756 47.208 890.078 47.208ZM901.374 49V33.448H903.55L903.774 35.688H903.87C904.617 34.9413 905.406 34.3227 906.238 33.832C907.07 33.32 908.019 33.064 909.086 33.064C910.729 33.064 911.923 33.5867 912.67 34.632C913.438 35.656 913.822 37.16 913.822 39.144V49H911.198V39.496C911.198 38.0453 910.963 36.9893 910.494 36.328C910.025 35.6667 909.278 35.336 908.254 35.336C907.465 35.336 906.75 35.5387 906.11 35.944C905.491 36.3493 904.787 36.9467 903.998 37.736V49H901.374ZM929.344 49.384C928.235 49.384 927.179 49.1813 926.176 48.776C925.174 48.3493 924.299 47.8373 923.552 47.24L924.864 45.48C925.547 46.0133 926.251 46.4613 926.976 46.824C927.702 47.1653 928.523 47.336 929.44 47.336C930.464 47.336 931.232 47.1013 931.744 46.632C932.256 46.1413 932.512 45.5653 932.512 44.904C932.512 44.3707 932.331 43.9227 931.968 43.56C931.627 43.1973 931.179 42.8987 930.624 42.664C930.091 42.408 929.536 42.1733 928.96 41.96C928.235 41.6827 927.52 41.3733 926.816 41.032C926.112 40.6693 925.536 40.2107 925.088 39.656C924.64 39.08 924.416 38.3547 924.416 37.48C924.416 36.2213 924.886 35.176 925.824 34.344C926.784 33.4907 928.107 33.064 929.792 33.064C930.752 33.064 931.648 33.2347 932.48 33.576C933.312 33.9173 934.027 34.3333 934.624 34.824L933.344 36.488C932.811 36.0827 932.256 35.752 931.68 35.496C931.104 35.24 930.475 35.112 929.792 35.112C928.811 35.112 928.086 35.336 927.616 35.784C927.168 36.232 926.944 36.7547 926.944 37.352C926.944 37.8427 927.104 38.248 927.424 38.568C927.744 38.8667 928.16 39.1333 928.672 39.368C929.184 39.5813 929.728 39.8053 930.304 40.04C931.051 40.3173 931.787 40.6373 932.512 41C933.238 41.3413 933.835 41.8107 934.304 42.408C934.795 42.984 935.04 43.7627 935.04 44.744C935.04 45.576 934.816 46.344 934.368 47.048C933.942 47.752 933.302 48.3173 932.448 48.744C931.616 49.1707 930.582 49.384 929.344 49.384ZM938.687 55.56V33.448H940.863L941.087 35.24H941.183C941.887 34.6427 942.655 34.1307 943.487 33.704C944.34 33.2773 945.225 33.064 946.143 33.064C948.148 33.064 949.673 33.7893 950.719 35.24C951.764 36.6693 952.287 38.5893 952.287 41C952.287 42.7493 951.967 44.2533 951.327 45.512C950.708 46.7707 949.887 47.7307 948.863 48.392C947.86 49.0533 946.761 49.384 945.567 49.384C944.841 49.384 944.116 49.224 943.391 48.904C942.687 48.584 941.972 48.1467 941.247 47.592L941.311 50.312V55.56H938.687ZM945.119 47.176C946.399 47.176 947.455 46.632 948.287 45.544C949.14 44.4347 949.567 42.92 949.567 41C949.567 39.2933 949.247 37.9173 948.607 36.872C947.988 35.8053 946.943 35.272 945.47 35.272C944.809 35.272 944.137 35.4533 943.455 35.816C942.793 36.1787 942.079 36.7013 941.311 37.384V45.544C942.015 46.1413 942.697 46.568 943.359 46.824C944.02 47.0587 944.607 47.176 945.119 47.176ZM959.583 49.384C958.282 49.384 957.194 49 956.319 48.232C955.466 47.4427 955.039 46.3547 955.039 44.968C955.039 43.2613 955.796 41.96 957.311 41.064C958.847 40.1467 961.268 39.5067 964.575 39.144C964.575 38.4827 964.479 37.8533 964.287 37.256C964.116 36.6587 963.796 36.1787 963.327 35.816C962.879 35.432 962.228 35.24 961.375 35.24C960.479 35.24 959.636 35.4107 958.847 35.752C958.058 36.0933 957.354 36.4773 956.735 36.904L955.711 35.08C956.436 34.6107 957.322 34.1627 958.367 33.736C959.434 33.288 960.586 33.064 961.823 33.064C963.722 33.064 965.098 33.6507 965.951 34.824C966.804 35.976 967.231 37.5227 967.231 39.464V49H965.055L964.831 47.144H964.735C964.01 47.7413 963.21 48.264 962.335 48.712C961.482 49.16 960.564 49.384 959.583 49.384ZM960.351 47.272C961.098 47.272 961.802 47.0907 962.463 46.728C963.124 46.3653 963.828 45.8533 964.575 45.192V40.872C961.994 41.192 960.18 41.672 959.135 42.312C958.111 42.952 957.599 43.7733 957.599 44.776C957.599 45.6507 957.866 46.2907 958.399 46.696C958.932 47.08 959.583 47.272 960.351 47.272ZM978.268 49.384C976.903 49.384 975.665 49.064 974.556 48.424C973.447 47.784 972.572 46.856 971.932 45.64C971.292 44.424 970.972 42.9627 970.972 41.256C970.972 39.5067 971.313 38.024 971.996 36.808C972.7 35.592 973.617 34.664 974.748 34.024C975.9 33.384 977.137 33.064 978.46 33.064C979.484 33.064 980.359 33.2453 981.084 33.608C981.831 33.9707 982.471 34.3973 983.004 34.888L981.66 36.616C981.212 36.2107 980.732 35.88 980.22 35.624C979.729 35.368 979.175 35.24 978.556 35.24C977.617 35.24 976.775 35.496 976.028 36.008C975.303 36.4987 974.727 37.2027 974.3 38.12C973.895 39.016 973.692 40.0613 973.692 41.256C973.692 43.0267 974.129 44.4667 975.004 45.576C975.9 46.664 977.063 47.208 978.492 47.208C979.217 47.208 979.889 47.0587 980.508 46.76C981.127 46.44 981.671 46.0667 982.14 45.64L983.292 47.4C982.588 48.0187 981.809 48.5093 980.956 48.872C980.103 49.2133 979.207 49.384 978.268 49.384ZM992.334 49.384C990.948 49.384 989.689 49.064 988.558 48.424C987.428 47.7627 986.532 46.824 985.87 45.608C985.209 44.392 984.878 42.9413 984.878 41.256C984.878 39.5493 985.209 38.088 985.87 36.872C986.553 35.656 987.428 34.7173 988.494 34.056C989.561 33.3947 990.681 33.064 991.854 33.064C993.838 33.064 995.364 33.7253 996.43 35.048C997.518 36.3707 998.062 38.1413 998.062 40.36C998.062 40.6373 998.052 40.9147 998.03 41.192C998.03 41.448 998.009 41.672 997.966 41.864H987.47C987.577 43.5067 988.089 44.8187 989.006 45.8C989.945 46.7813 991.161 47.272 992.654 47.272C993.401 47.272 994.084 47.1653 994.702 46.952C995.342 46.7173 995.95 46.4187 996.526 46.056L997.454 47.784C996.793 48.2107 996.036 48.584 995.182 48.904C994.35 49.224 993.401 49.384 992.334 49.384ZM987.438 39.976H995.758C995.758 38.3973 995.417 37.2027 994.734 36.392C994.073 35.56 993.134 35.144 991.918 35.144C990.83 35.144 989.849 35.5707 988.974 36.424C988.121 37.256 987.609 38.44 987.438 39.976ZM1005.97 49.384C1004.86 49.384 1003.8 49.1813 1002.8 48.776C1001.8 48.3493 1000.92 47.8373 1000.18 47.24L1001.49 45.48C1002.17 46.0133 1002.88 46.4613 1003.6 46.824C1004.33 47.1653 1005.15 47.336 1006.07 47.336C1007.09 47.336 1007.86 47.1013 1008.37 46.632C1008.88 46.1413 1009.14 45.5653 1009.14 44.904C1009.14 44.3707 1008.96 43.9227 1008.59 43.56C1008.25 43.1973 1007.8 42.8987 1007.25 42.664C1006.72 42.408 1006.16 42.1733 1005.59 41.96C1004.86 41.6827 1004.15 41.3733 1003.44 41.032C1002.74 40.6693 1002.16 40.2107 1001.71 39.656C1001.27 39.08 1001.04 38.3547 1001.04 37.48C1001.04 36.2213 1001.51 35.176 1002.45 34.344C1003.41 33.4907 1004.73 33.064 1006.42 33.064C1007.38 33.064 1008.27 33.2347 1009.11 33.576C1009.94 33.9173 1010.65 34.3333 1011.25 34.824L1009.97 36.488C1009.44 36.0827 1008.88 35.752 1008.31 35.496C1007.73 35.24 1007.1 35.112 1006.42 35.112C1005.44 35.112 1004.71 35.336 1004.24 35.784C1003.79 36.232 1003.57 36.7547 1003.57 37.352C1003.57 37.8427 1003.73 38.248 1004.05 38.568C1004.37 38.8667 1004.79 39.1333 1005.3 39.368C1005.81 39.5813 1006.35 39.8053 1006.93 40.04C1007.68 40.3173 1008.41 40.6373 1009.14 41C1009.86 41.3413 1010.46 41.8107 1010.93 42.408C1011.42 42.984 1011.67 43.7627 1011.67 44.744C1011.67 45.576 1011.44 46.344 1010.99 47.048C1010.57 47.752 1009.93 48.3173 1009.07 48.744C1008.24 49.1707 1007.21 49.384 1005.97 49.384Z" fill="black"/>
<path d="M237.479 152V127.072H240.633V149.302H251.539V152H237.479ZM262.696 152.456C261.049 152.456 259.554 152.076 258.212 151.316C256.869 150.531 255.805 149.416 255.02 147.972C254.234 146.528 253.842 144.805 253.842 142.804C253.842 140.777 254.234 139.042 255.02 137.598C255.83 136.154 256.869 135.039 258.136 134.254C259.402 133.469 260.732 133.076 262.126 133.076C264.482 133.076 266.293 133.861 267.56 135.432C268.852 137.003 269.498 139.105 269.498 141.74C269.498 142.069 269.485 142.399 269.46 142.728C269.46 143.032 269.434 143.298 269.384 143.526H256.92C257.046 145.477 257.654 147.035 258.744 148.2C259.858 149.365 261.302 149.948 263.076 149.948C263.962 149.948 264.773 149.821 265.508 149.568C266.268 149.289 266.99 148.935 267.674 148.504L268.776 150.556C267.99 151.063 267.091 151.506 266.078 151.886C265.09 152.266 263.962 152.456 262.696 152.456ZM256.882 141.284H266.762C266.762 139.409 266.356 137.991 265.546 137.028C264.76 136.04 263.646 135.546 262.202 135.546C260.91 135.546 259.744 136.053 258.706 137.066C257.692 138.054 257.084 139.46 256.882 141.284ZM279.504 152.456C277.528 152.456 276.148 151.886 275.362 150.746C274.602 149.606 274.222 148.124 274.222 146.3V136.078H271.486V133.722L274.374 133.532L274.754 128.364H277.376V133.532H282.354V136.078H277.376V146.338C277.376 147.478 277.579 148.365 277.984 148.998C278.415 149.606 279.162 149.91 280.226 149.91C280.556 149.91 280.91 149.859 281.29 149.758C281.67 149.631 282.012 149.517 282.316 149.416L282.924 151.772C282.418 151.949 281.86 152.101 281.252 152.228C280.67 152.38 280.087 152.456 279.504 152.456ZM286.682 135.622L285.808 134.178C286.771 133.545 287.48 132.873 287.936 132.164C288.417 131.429 288.658 130.517 288.658 129.428C288.582 129.453 288.481 129.466 288.354 129.466C287.822 129.466 287.353 129.301 286.948 128.972C286.543 128.643 286.34 128.174 286.34 127.566C286.34 126.907 286.53 126.388 286.91 126.008C287.29 125.628 287.771 125.438 288.354 125.438C289.089 125.438 289.671 125.742 290.102 126.35C290.533 126.933 290.748 127.781 290.748 128.896C290.748 130.416 290.393 131.733 289.684 132.848C289 133.937 287.999 134.862 286.682 135.622ZM298.963 152.456C297.646 152.456 296.392 152.215 295.201 151.734C294.011 151.227 292.972 150.619 292.085 149.91L293.643 147.82C294.454 148.453 295.29 148.985 296.151 149.416C297.013 149.821 297.988 150.024 299.077 150.024C300.293 150.024 301.205 149.745 301.813 149.188C302.421 148.605 302.725 147.921 302.725 147.136C302.725 146.503 302.51 145.971 302.079 145.54C301.674 145.109 301.142 144.755 300.483 144.476C299.85 144.172 299.191 143.893 298.507 143.64C297.646 143.311 296.797 142.943 295.961 142.538C295.125 142.107 294.441 141.563 293.909 140.904C293.377 140.22 293.111 139.359 293.111 138.32C293.111 136.825 293.669 135.584 294.783 134.596C295.923 133.583 297.494 133.076 299.495 133.076C300.635 133.076 301.699 133.279 302.687 133.684C303.675 134.089 304.524 134.583 305.233 135.166L303.713 137.142C303.08 136.661 302.421 136.268 301.737 135.964C301.053 135.66 300.306 135.508 299.495 135.508C298.33 135.508 297.469 135.774 296.911 136.306C296.379 136.838 296.113 137.459 296.113 138.168C296.113 138.751 296.303 139.232 296.683 139.612C297.063 139.967 297.557 140.283 298.165 140.562C298.773 140.815 299.419 141.081 300.103 141.36C300.99 141.689 301.864 142.069 302.725 142.5C303.587 142.905 304.296 143.463 304.853 144.172C305.436 144.856 305.727 145.781 305.727 146.946C305.727 147.934 305.461 148.846 304.929 149.682C304.423 150.518 303.663 151.189 302.649 151.696C301.661 152.203 300.433 152.456 298.963 152.456Z" fill="#29175C"/>
<path d="M833.587 152.456C831.282 152.456 829.432 151.62 828.039 149.948C826.646 148.251 825.949 145.869 825.949 142.804C825.949 140.803 826.316 139.08 827.051 137.636C827.811 136.167 828.799 135.039 830.015 134.254C831.256 133.469 832.574 133.076 833.967 133.076C835.031 133.076 835.956 133.266 836.741 133.646C837.526 134.026 838.324 134.545 839.135 135.204L838.983 132.05V124.944H842.137V152H839.553L839.287 149.834H839.173C838.464 150.543 837.628 151.164 836.665 151.696C835.702 152.203 834.676 152.456 833.587 152.456ZM834.271 149.834C835.892 149.834 837.463 148.985 838.983 147.288V137.636C838.198 136.927 837.438 136.433 836.703 136.154C835.994 135.85 835.259 135.698 834.499 135.698C833.511 135.698 832.612 136.002 831.801 136.61C831.016 137.193 830.382 138.016 829.901 139.08C829.42 140.119 829.179 141.347 829.179 142.766C829.179 144.97 829.622 146.705 830.509 147.972C831.396 149.213 832.65 149.834 834.271 149.834ZM855.539 152.456C854.045 152.456 852.639 152.076 851.321 151.316C850.029 150.556 848.978 149.454 848.167 148.01C847.382 146.566 846.989 144.831 846.989 142.804C846.989 140.727 847.382 138.966 848.167 137.522C848.978 136.078 850.029 134.976 851.321 134.216C852.639 133.456 854.045 133.076 855.539 133.076C857.059 133.076 858.465 133.456 859.757 134.216C861.049 134.976 862.088 136.078 862.873 137.522C863.684 138.966 864.089 140.727 864.089 142.804C864.089 144.831 863.684 146.566 862.873 148.01C862.088 149.454 861.049 150.556 859.757 151.316C858.465 152.076 857.059 152.456 855.539 152.456ZM855.539 149.872C857.135 149.872 858.415 149.226 859.377 147.934C860.365 146.617 860.859 144.907 860.859 142.804C860.859 140.676 860.365 138.953 859.377 137.636C858.415 136.319 857.135 135.66 855.539 135.66C853.969 135.66 852.689 136.319 851.701 137.636C850.713 138.953 850.219 140.676 850.219 142.804C850.219 144.907 850.713 146.617 851.701 147.934C852.689 149.226 853.969 149.872 855.539 149.872Z" fill="#29175C"/>
<path d="M1350.19 152.456C1348.21 152.456 1346.83 151.886 1346.05 150.746C1345.29 149.606 1344.91 148.124 1344.91 146.3V136.078H1342.17V133.722L1345.06 133.532L1345.44 128.364H1348.06V133.532H1353.04V136.078H1348.06V146.338C1348.06 147.478 1348.26 148.365 1348.67 148.998C1349.1 149.606 1349.85 149.91 1350.91 149.91C1351.24 149.91 1351.6 149.859 1351.98 149.758C1352.36 149.631 1352.7 149.517 1353 149.416L1353.61 151.772C1353.1 151.949 1352.55 152.101 1351.94 152.228C1351.36 152.38 1350.77 152.456 1350.19 152.456ZM1363.88 152.456C1362.38 152.456 1360.98 152.076 1359.66 151.316C1358.37 150.556 1357.32 149.454 1356.51 148.01C1355.72 146.566 1355.33 144.831 1355.33 142.804C1355.33 140.727 1355.72 138.966 1356.51 137.522C1357.32 136.078 1358.37 134.976 1359.66 134.216C1360.98 133.456 1362.38 133.076 1363.88 133.076C1365.4 133.076 1366.8 133.456 1368.1 134.216C1369.39 134.976 1370.43 136.078 1371.21 137.522C1372.02 138.966 1372.43 140.727 1372.43 142.804C1372.43 144.831 1372.02 146.566 1371.21 148.01C1370.43 149.454 1369.39 150.556 1368.1 151.316C1366.8 152.076 1365.4 152.456 1363.88 152.456ZM1363.88 149.872C1365.47 149.872 1366.75 149.226 1367.72 147.934C1368.7 146.617 1369.2 144.907 1369.2 142.804C1369.2 140.676 1368.7 138.953 1367.72 137.636C1366.75 136.319 1365.47 135.66 1363.88 135.66C1362.31 135.66 1361.03 136.319 1360.04 137.636C1359.05 138.953 1358.56 140.676 1358.56 142.804C1358.56 144.907 1359.05 146.617 1360.04 147.934C1361.03 149.226 1362.31 149.872 1363.88 149.872ZM1377.29 152V124.944H1380.37V143.26H1380.48L1388.35 133.532H1391.81L1385.61 140.942L1392.64 152H1389.22L1383.83 143.108L1380.37 147.136V152H1377.29ZM1402.92 152.456C1401.28 152.456 1399.78 152.076 1398.44 151.316C1397.1 150.531 1396.03 149.416 1395.25 147.972C1394.46 146.528 1394.07 144.805 1394.07 142.804C1394.07 140.777 1394.46 139.042 1395.25 137.598C1396.06 136.154 1397.1 135.039 1398.36 134.254C1399.63 133.469 1400.96 133.076 1402.35 133.076C1404.71 133.076 1406.52 133.861 1407.79 135.432C1409.08 137.003 1409.73 139.105 1409.73 141.74C1409.73 142.069 1409.71 142.399 1409.69 142.728C1409.69 143.032 1409.66 143.298 1409.61 143.526H1397.15C1397.27 145.477 1397.88 147.035 1398.97 148.2C1400.09 149.365 1401.53 149.948 1403.3 149.948C1404.19 149.948 1405 149.821 1405.74 149.568C1406.5 149.289 1407.22 148.935 1407.9 148.504L1409 150.556C1408.22 151.063 1407.32 151.506 1406.31 151.886C1405.32 152.266 1404.19 152.456 1402.92 152.456ZM1397.11 141.284H1406.99C1406.99 139.409 1406.58 137.991 1405.77 137.028C1404.99 136.04 1403.87 135.546 1402.43 135.546C1401.14 135.546 1399.97 136.053 1398.93 137.066C1397.92 138.054 1397.31 139.46 1397.11 141.284ZM1414.29 152V133.532H1416.87L1417.14 136.192H1417.25C1418.14 135.305 1419.08 134.571 1420.07 133.988C1421.05 133.38 1422.18 133.076 1423.45 133.076C1425.4 133.076 1426.82 133.697 1427.7 134.938C1428.62 136.154 1429.07 137.94 1429.07 140.296V152H1425.96V140.714C1425.96 138.991 1425.68 137.737 1425.12 136.952C1424.56 136.167 1423.68 135.774 1422.46 135.774C1421.52 135.774 1420.67 136.015 1419.91 136.496C1419.18 136.977 1418.34 137.687 1417.41 138.624V152H1414.29ZM1435.07 152V133.532H1438.19V152H1435.07ZM1436.67 129.732C1436.06 129.732 1435.55 129.555 1435.15 129.2C1434.77 128.82 1434.58 128.313 1434.58 127.68C1434.58 127.072 1434.77 126.578 1435.15 126.198C1435.55 125.818 1436.06 125.628 1436.67 125.628C1437.28 125.628 1437.77 125.818 1438.15 126.198C1438.55 126.578 1438.76 127.072 1438.76 127.68C1438.76 128.313 1438.55 128.82 1438.15 129.2C1437.77 129.555 1437.28 129.732 1436.67 129.732ZM1442.48 152V150.328L1452.21 136.078H1443.55V133.532H1456.16V135.204L1446.44 149.454H1456.47V152H1442.48ZM1463.93 152.456C1462.39 152.456 1461.09 152 1460.05 151.088C1459.04 150.151 1458.53 148.859 1458.53 147.212C1458.53 145.185 1459.43 143.64 1461.23 142.576C1463.06 141.487 1465.93 140.727 1469.86 140.296C1469.86 139.511 1469.74 138.763 1469.52 138.054C1469.31 137.345 1468.93 136.775 1468.38 136.344C1467.84 135.888 1467.07 135.66 1466.06 135.66C1464.99 135.66 1463.99 135.863 1463.06 136.268C1462.12 136.673 1461.28 137.129 1460.55 137.636L1459.33 135.47C1460.19 134.913 1461.25 134.381 1462.49 133.874C1463.75 133.342 1465.12 133.076 1466.59 133.076C1468.85 133.076 1470.48 133.773 1471.49 135.166C1472.51 136.534 1473.01 138.371 1473.01 140.676V152H1470.43L1470.16 149.796H1470.05C1469.19 150.505 1468.24 151.126 1467.2 151.658C1466.19 152.19 1465.1 152.456 1463.93 152.456ZM1464.84 149.948C1465.73 149.948 1466.57 149.733 1467.35 149.302C1468.14 148.871 1468.97 148.263 1469.86 147.478V142.348C1466.79 142.728 1464.64 143.298 1463.4 144.058C1462.18 144.818 1461.57 145.793 1461.57 146.984C1461.57 148.023 1461.89 148.783 1462.52 149.264C1463.16 149.72 1463.93 149.948 1464.84 149.948ZM1484.12 152.456C1482.14 152.456 1480.76 151.886 1479.98 150.746C1479.22 149.606 1478.84 148.124 1478.84 146.3V136.078H1476.1V133.722L1478.99 133.532L1479.37 128.364H1481.99V133.532H1486.97V136.078H1481.99V146.338C1481.99 147.478 1482.19 148.365 1482.6 148.998C1483.03 149.606 1483.78 149.91 1484.84 149.91C1485.17 149.91 1485.52 149.859 1485.9 149.758C1486.28 149.631 1486.63 149.517 1486.93 149.416L1487.54 151.772C1487.03 151.949 1486.47 152.101 1485.87 152.228C1485.28 152.38 1484.7 152.456 1484.12 152.456ZM1491.14 152V133.532H1494.26V152H1491.14ZM1492.74 129.732C1492.13 129.732 1491.62 129.555 1491.22 129.2C1490.84 128.82 1490.65 128.313 1490.65 127.68C1490.65 127.072 1490.84 126.578 1491.22 126.198C1491.62 125.818 1492.13 125.628 1492.74 125.628C1493.35 125.628 1493.84 125.818 1494.22 126.198C1494.63 126.578 1494.83 127.072 1494.83 127.68C1494.83 128.313 1494.63 128.82 1494.22 129.2C1493.84 129.555 1493.35 129.732 1492.74 129.732ZM1507.68 152.456C1506.18 152.456 1504.78 152.076 1503.46 151.316C1502.17 150.556 1501.12 149.454 1500.3 148.01C1499.52 146.566 1499.13 144.831 1499.13 142.804C1499.13 140.727 1499.52 138.966 1500.3 137.522C1501.12 136.078 1502.17 134.976 1503.46 134.216C1504.78 133.456 1506.18 133.076 1507.68 133.076C1509.2 133.076 1510.6 133.456 1511.89 134.216C1513.19 134.976 1514.23 136.078 1515.01 137.522C1515.82 138.966 1516.23 140.727 1516.23 142.804C1516.23 144.831 1515.82 146.566 1515.01 148.01C1514.23 149.454 1513.19 150.556 1511.89 151.316C1510.6 152.076 1509.2 152.456 1507.68 152.456ZM1507.68 149.872C1509.27 149.872 1510.55 149.226 1511.51 147.934C1512.5 146.617 1513 144.907 1513 142.804C1513 140.676 1512.5 138.953 1511.51 137.636C1510.55 136.319 1509.27 135.66 1507.68 135.66C1506.11 135.66 1504.83 136.319 1503.84 137.636C1502.85 138.953 1502.36 140.676 1502.36 142.804C1502.36 144.907 1502.85 146.617 1503.84 147.934C1504.83 149.226 1506.11 149.872 1507.68 149.872ZM1521.09 152V133.532H1523.67L1523.94 136.192H1524.05C1524.94 135.305 1525.88 134.571 1526.87 133.988C1527.85 133.38 1528.98 133.076 1530.25 133.076C1532.2 133.076 1533.62 133.697 1534.5 134.938C1535.42 136.154 1535.87 137.94 1535.87 140.296V152H1532.76V140.714C1532.76 138.991 1532.48 137.737 1531.92 136.952C1531.36 136.167 1530.48 135.774 1529.26 135.774C1528.32 135.774 1527.47 136.015 1526.71 136.496C1525.98 136.977 1525.14 137.687 1524.21 138.624V152H1521.09ZM1543.16 144.476L1542.75 130.112L1542.67 126.54H1545.82L1545.75 130.112L1545.33 144.476H1543.16ZM1544.27 152.456C1543.63 152.456 1543.09 152.241 1542.63 151.81C1542.2 151.354 1541.99 150.784 1541.99 150.1C1541.99 149.365 1542.2 148.783 1542.63 148.352C1543.09 147.896 1543.63 147.668 1544.27 147.668C1544.87 147.668 1545.39 147.896 1545.82 148.352C1546.28 148.783 1546.51 149.365 1546.51 150.1C1546.51 150.784 1546.28 151.354 1545.82 151.81C1545.39 152.241 1544.87 152.456 1544.27 152.456Z" fill="#29175C"/>
<line x1="553.5" y1="91" x2="553.5" y2="185" stroke="#DBCEFF" stroke-width="3"/>
<line x1="1139.5" y1="91" x2="1139.5" y2="185" stroke="#DBCEFF" stroke-width="3"/>
<rect x="1" y="296" width="1738" height="96" rx="5" fill="#F5F1FF" stroke="#DBCEFF" stroke-width="2"/>
<path d="M784.845 264.384C783.373 264.384 782.007 264.107 780.749 263.552C779.49 262.976 778.402 262.219 777.485 261.28L779.085 259.424C779.831 260.213 780.706 260.853 781.709 261.344C782.733 261.813 783.789 262.048 784.877 262.048C786.263 262.048 787.341 261.739 788.109 261.12C788.877 260.48 789.261 259.648 789.261 258.624C789.261 257.899 789.101 257.323 788.781 256.896C788.482 256.469 788.066 256.107 787.533 255.808C787.021 255.509 786.434 255.211 785.773 254.912L782.765 253.6C782.103 253.323 781.442 252.96 780.781 252.512C780.141 252.064 779.597 251.488 779.149 250.784C778.722 250.08 778.509 249.216 778.509 248.192C778.509 247.125 778.786 246.176 779.341 245.344C779.917 244.491 780.706 243.829 781.709 243.36C782.711 242.869 783.842 242.624 785.101 242.624C786.359 242.624 787.522 242.869 788.589 243.36C789.655 243.829 790.562 244.448 791.309 245.216L789.869 246.944C789.229 246.325 788.514 245.845 787.725 245.504C786.957 245.141 786.082 244.96 785.101 244.96C783.927 244.96 782.978 245.237 782.253 245.792C781.549 246.347 781.197 247.093 781.197 248.032C781.197 248.693 781.367 249.248 781.709 249.696C782.071 250.123 782.519 250.475 783.053 250.752C783.586 251.029 784.13 251.285 784.685 251.52L787.661 252.8C788.471 253.141 789.197 253.557 789.837 254.048C790.498 254.517 791.021 255.104 791.405 255.808C791.789 256.491 791.981 257.355 791.981 258.4C791.981 259.509 791.693 260.523 791.117 261.44C790.541 262.336 789.719 263.051 788.653 263.584C787.586 264.117 786.317 264.384 784.845 264.384ZM795.858 270.56V248.448H798.034L798.258 250.24H798.354C799.058 249.643 799.826 249.131 800.658 248.704C801.512 248.277 802.397 248.064 803.314 248.064C805.32 248.064 806.845 248.789 807.89 250.24C808.936 251.669 809.458 253.589 809.458 256C809.458 257.749 809.138 259.253 808.498 260.512C807.88 261.771 807.058 262.731 806.034 263.392C805.032 264.053 803.933 264.384 802.738 264.384C802.013 264.384 801.288 264.224 800.562 263.904C799.858 263.584 799.144 263.147 798.418 262.592L798.482 265.312V270.56H795.858ZM802.29 262.176C803.57 262.176 804.626 261.632 805.458 260.544C806.312 259.435 806.738 257.92 806.738 256C806.738 254.293 806.418 252.917 805.778 251.872C805.16 250.805 804.114 250.272 802.642 250.272C801.981 250.272 801.309 250.453 800.626 250.816C799.965 251.179 799.25 251.701 798.482 252.384V260.544C799.186 261.141 799.869 261.568 800.53 261.824C801.192 262.059 801.778 262.176 802.29 262.176ZM816.392 264.384C815.411 264.384 814.696 264.085 814.248 263.488C813.822 262.869 813.608 261.995 813.608 260.864V241.216H816.232V261.056C816.232 261.461 816.307 261.76 816.456 261.952C816.606 262.123 816.776 262.208 816.968 262.208C817.054 262.208 817.128 262.208 817.192 262.208C817.278 262.187 817.395 262.165 817.544 262.144L817.896 264.128C817.726 264.213 817.523 264.277 817.288 264.32C817.054 264.363 816.755 264.384 816.392 264.384ZM821.765 264V248.448H824.389V264H821.765ZM823.109 245.248C822.597 245.248 822.17 245.099 821.829 244.8C821.509 244.48 821.349 244.053 821.349 243.52C821.349 243.008 821.509 242.592 821.829 242.272C822.17 241.952 822.597 241.792 823.109 241.792C823.621 241.792 824.037 241.952 824.357 242.272C824.698 242.592 824.869 243.008 824.869 243.52C824.869 244.053 824.698 244.48 824.357 244.8C824.037 245.099 823.621 245.248 823.109 245.248ZM834.536 264.384C832.872 264.384 831.709 263.904 831.048 262.944C830.408 261.984 830.088 260.736 830.088 259.2V250.592H827.784V248.608L830.216 248.448L830.536 244.096H832.744V248.448H836.936V250.592H832.744V259.232C832.744 260.192 832.914 260.939 833.256 261.472C833.618 261.984 834.248 262.24 835.144 262.24C835.421 262.24 835.72 262.197 836.04 262.112C836.36 262.005 836.648 261.909 836.904 261.824L837.416 263.808C836.989 263.957 836.52 264.085 836.008 264.192C835.517 264.32 835.026 264.384 834.536 264.384ZM852.906 264.384C851.648 264.384 850.464 264.064 849.354 263.424C848.266 262.784 847.381 261.856 846.698 260.64C846.037 259.424 845.706 257.963 845.706 256.256C845.706 254.507 846.037 253.024 846.698 251.808C847.381 250.592 848.266 249.664 849.354 249.024C850.464 248.384 851.648 248.064 852.906 248.064C854.186 248.064 855.37 248.384 856.458 249.024C857.546 249.664 858.421 250.592 859.082 251.808C859.765 253.024 860.106 254.507 860.106 256.256C860.106 257.963 859.765 259.424 859.082 260.64C858.421 261.856 857.546 262.784 856.458 263.424C855.37 264.064 854.186 264.384 852.906 264.384ZM852.906 262.208C854.25 262.208 855.328 261.664 856.138 260.576C856.97 259.467 857.386 258.027 857.386 256.256C857.386 254.464 856.97 253.013 856.138 251.904C855.328 250.795 854.25 250.24 852.906 250.24C851.584 250.24 850.506 250.795 849.674 251.904C848.842 253.013 848.426 254.464 848.426 256.256C848.426 258.027 848.842 259.467 849.674 260.576C850.506 261.664 851.584 262.208 852.906 262.208ZM864.202 264V248.448H866.378L866.602 250.688H866.698C867.445 249.941 868.234 249.323 869.066 248.832C869.898 248.32 870.847 248.064 871.914 248.064C873.557 248.064 874.751 248.587 875.498 249.632C876.266 250.656 876.65 252.16 876.65 254.144V264H874.026V254.496C874.026 253.045 873.791 251.989 873.322 251.328C872.853 250.667 872.106 250.336 871.082 250.336C870.293 250.336 869.578 250.539 868.938 250.944C868.319 251.349 867.615 251.947 866.826 252.736V264H864.202ZM888.108 270.56V248.448H890.284L890.508 250.24H890.604C891.308 249.643 892.076 249.131 892.908 248.704C893.762 248.277 894.647 248.064 895.564 248.064C897.57 248.064 899.095 248.789 900.14 250.24C901.186 251.669 901.708 253.589 901.708 256C901.708 257.749 901.388 259.253 900.748 260.512C900.13 261.771 899.308 262.731 898.284 263.392C897.282 264.053 896.183 264.384 894.988 264.384C894.263 264.384 893.538 264.224 892.812 263.904C892.108 263.584 891.394 263.147 890.668 262.592L890.732 265.312V270.56H888.108ZM894.54 262.176C895.82 262.176 896.876 261.632 897.708 260.544C898.562 259.435 898.988 257.92 898.988 256C898.988 254.293 898.668 252.917 898.028 251.872C897.41 250.805 896.364 250.272 894.892 250.272C894.231 250.272 893.559 250.453 892.876 250.816C892.215 251.179 891.5 251.701 890.732 252.384V260.544C891.436 261.141 892.119 261.568 892.78 261.824C893.442 262.059 894.028 262.176 894.54 262.176ZM910.402 264.384C908.76 264.384 907.554 263.872 906.786 262.848C906.018 261.803 905.634 260.288 905.634 258.304V248.448H908.29V257.952C908.29 259.403 908.514 260.459 908.962 261.12C909.432 261.781 910.178 262.112 911.202 262.112C912.013 262.112 912.728 261.909 913.346 261.504C913.986 261.077 914.669 260.405 915.394 259.488V248.448H918.018V264H915.842L915.618 261.568H915.522C914.797 262.421 914.029 263.104 913.218 263.616C912.408 264.128 911.469 264.384 910.402 264.384ZM923.265 264V248.448H925.441L925.665 250.688H925.761C926.507 249.941 927.297 249.323 928.129 248.832C928.961 248.32 929.91 248.064 930.977 248.064C932.619 248.064 933.814 248.587 934.561 249.632C935.329 250.656 935.713 252.16 935.713 254.144V264H933.089V254.496C933.089 253.045 932.854 251.989 932.385 251.328C931.915 250.667 931.169 250.336 930.145 250.336C929.355 250.336 928.641 250.539 928.001 250.944C927.382 251.349 926.678 251.947 925.889 252.736V264H923.265ZM946.909 264.384C945.543 264.384 944.306 264.064 943.197 263.424C942.087 262.784 941.213 261.856 940.573 260.64C939.933 259.424 939.613 257.963 939.613 256.256C939.613 254.507 939.954 253.024 940.637 251.808C941.341 250.592 942.258 249.664 943.389 249.024C944.541 248.384 945.778 248.064 947.101 248.064C948.125 248.064 948.999 248.245 949.725 248.608C950.471 248.971 951.111 249.397 951.645 249.888L950.301 251.616C949.853 251.211 949.373 250.88 948.861 250.624C948.37 250.368 947.815 250.24 947.197 250.24C946.258 250.24 945.415 250.496 944.669 251.008C943.943 251.499 943.367 252.203 942.941 253.12C942.535 254.016 942.333 255.061 942.333 256.256C942.333 258.027 942.77 259.467 943.645 260.576C944.541 261.664 945.703 262.208 947.133 262.208C947.858 262.208 948.53 262.059 949.149 261.76C949.767 261.44 950.311 261.067 950.781 260.64L951.933 262.4C951.229 263.019 950.45 263.509 949.597 263.872C948.743 264.213 947.847 264.384 946.909 264.384ZM959.942 264.384C958.278 264.384 957.115 263.904 956.454 262.944C955.814 261.984 955.494 260.736 955.494 259.2V250.592H953.19V248.608L955.622 248.448L955.942 244.096H958.15V248.448H962.342V250.592H958.15V259.232C958.15 260.192 958.321 260.939 958.662 261.472C959.025 261.984 959.654 262.24 960.55 262.24C960.827 262.24 961.126 262.197 961.446 262.112C961.766 262.005 962.054 261.909 962.31 261.824L962.822 263.808C962.395 263.957 961.926 264.085 961.414 264.192C960.923 264.32 960.433 264.384 959.942 264.384ZM970.402 264.384C968.76 264.384 967.554 263.872 966.786 262.848C966.018 261.803 965.634 260.288 965.634 258.304V248.448H968.29V257.952C968.29 259.403 968.514 260.459 968.962 261.12C969.432 261.781 970.178 262.112 971.202 262.112C972.013 262.112 972.728 261.909 973.346 261.504C973.986 261.077 974.669 260.405 975.394 259.488V248.448H978.018V264H975.842L975.618 261.568H975.522C974.797 262.421 974.029 263.104 973.218 263.616C972.408 264.128 971.469 264.384 970.402 264.384ZM986.849 264.384C985.547 264.384 984.459 264 983.585 263.232C982.731 262.443 982.305 261.355 982.305 259.968C982.305 258.261 983.062 256.96 984.577 256.064C986.113 255.147 988.534 254.507 991.841 254.144C991.841 253.483 991.745 252.853 991.553 252.256C991.382 251.659 991.062 251.179 990.593 250.816C990.145 250.432 989.494 250.24 988.641 250.24C987.745 250.24 986.902 250.411 986.113 250.752C985.323 251.093 984.619 251.477 984.001 251.904L982.977 250.08C983.702 249.611 984.587 249.163 985.633 248.736C986.699 248.288 987.851 248.064 989.089 248.064C990.987 248.064 992.363 248.651 993.217 249.824C994.07 250.976 994.497 252.523 994.497 254.464V264H992.321L992.097 262.144H992.001C991.275 262.741 990.475 263.264 989.601 263.712C988.747 264.16 987.83 264.384 986.849 264.384ZM987.617 262.272C988.363 262.272 989.067 262.091 989.729 261.728C990.39 261.365 991.094 260.853 991.841 260.192V255.872C989.259 256.192 987.446 256.672 986.401 257.312C985.377 257.952 984.865 258.773 984.865 259.776C984.865 260.651 985.131 261.291 985.665 261.696C986.198 262.08 986.849 262.272 987.617 262.272ZM1003.85 264.384C1002.18 264.384 1001.02 263.904 1000.36 262.944C999.72 261.984 999.4 260.736 999.4 259.2V250.592H997.096V248.608L999.528 248.448L999.848 244.096H1002.06V248.448H1006.25V250.592H1002.06V259.232C1002.06 260.192 1002.23 260.939 1002.57 261.472C1002.93 261.984 1003.56 262.24 1004.46 262.24C1004.73 262.24 1005.03 262.197 1005.35 262.112C1005.67 262.005 1005.96 261.909 1006.22 261.824L1006.73 263.808C1006.3 263.957 1005.83 264.085 1005.32 264.192C1004.83 264.32 1004.34 264.384 1003.85 264.384ZM1009.76 264V248.448H1012.39V264H1009.76ZM1011.11 245.248C1010.6 245.248 1010.17 245.099 1009.83 244.8C1009.51 244.48 1009.35 244.053 1009.35 243.52C1009.35 243.008 1009.51 242.592 1009.83 242.272C1010.17 241.952 1010.6 241.792 1011.11 241.792C1011.62 241.792 1012.04 241.952 1012.36 242.272C1012.7 242.592 1012.87 243.008 1012.87 243.52C1012.87 244.053 1012.7 244.48 1012.36 244.8C1012.04 245.099 1011.62 245.248 1011.11 245.248ZM1023.69 264.384C1022.43 264.384 1021.24 264.064 1020.14 263.424C1019.05 262.784 1018.16 261.856 1017.48 260.64C1016.82 259.424 1016.49 257.963 1016.49 256.256C1016.49 254.507 1016.82 253.024 1017.48 251.808C1018.16 250.592 1019.05 249.664 1020.14 249.024C1021.24 248.384 1022.43 248.064 1023.69 248.064C1024.97 248.064 1026.15 248.384 1027.24 249.024C1028.33 249.664 1029.2 250.592 1029.86 251.808C1030.55 253.024 1030.89 254.507 1030.89 256.256C1030.89 257.963 1030.55 259.424 1029.86 260.64C1029.2 261.856 1028.33 262.784 1027.24 263.424C1026.15 264.064 1024.97 264.384 1023.69 264.384ZM1023.69 262.208C1025.03 262.208 1026.11 261.664 1026.92 260.576C1027.75 259.467 1028.17 258.027 1028.17 256.256C1028.17 254.464 1027.75 253.013 1026.92 251.904C1026.11 250.795 1025.03 250.24 1023.69 250.24C1022.36 250.24 1021.29 250.795 1020.46 251.904C1019.62 253.013 1019.21 254.464 1019.21 256.256C1019.21 258.027 1019.62 259.467 1020.46 260.576C1021.29 261.664 1022.36 262.208 1023.69 262.208ZM1034.98 264V248.448H1037.16L1037.38 250.688H1037.48C1038.23 249.941 1039.02 249.323 1039.85 248.832C1040.68 248.32 1041.63 248.064 1042.7 248.064C1044.34 248.064 1045.53 248.587 1046.28 249.632C1047.05 250.656 1047.43 252.16 1047.43 254.144V264H1044.81V254.496C1044.81 253.045 1044.57 251.989 1044.1 251.328C1043.63 250.667 1042.89 250.336 1041.86 250.336C1041.07 250.336 1040.36 250.539 1039.72 250.944C1039.1 251.349 1038.4 251.947 1037.61 252.736V264H1034.98Z" fill="black"/>
<path d="M177.742 358V333.072H180.896V355.302H191.802V358H177.742ZM202.959 358.456C201.313 358.456 199.818 358.076 198.475 357.316C197.133 356.531 196.069 355.416 195.283 353.972C194.498 352.528 194.105 350.805 194.105 348.804C194.105 346.777 194.498 345.042 195.283 343.598C196.094 342.154 197.133 341.039 198.399 340.254C199.666 339.469 200.996 339.076 202.389 339.076C204.745 339.076 206.557 339.861 207.823 341.432C209.115 343.003 209.761 345.105 209.761 347.74C209.761 348.069 209.749 348.399 209.723 348.728C209.723 349.032 209.698 349.298 209.647 349.526H197.183C197.31 351.477 197.918 353.035 199.007 354.2C200.122 355.365 201.566 355.948 203.339 355.948C204.226 355.948 205.037 355.821 205.771 355.568C206.531 355.289 207.253 354.935 207.937 354.504L209.039 356.556C208.254 357.063 207.355 357.506 206.341 357.886C205.353 358.266 204.226 358.456 202.959 358.456ZM197.145 347.284H207.025C207.025 345.409 206.62 343.991 205.809 343.028C205.024 342.04 203.909 341.546 202.465 341.546C201.173 341.546 200.008 342.053 198.969 343.066C197.956 344.054 197.348 345.46 197.145 347.284ZM219.768 358.456C217.792 358.456 216.411 357.886 215.626 356.746C214.866 355.606 214.486 354.124 214.486 352.3V342.078H211.75V339.722L214.638 339.532L215.018 334.364H217.64V339.532H222.618V342.078H217.64V352.338C217.64 353.478 217.843 354.365 218.248 354.998C218.679 355.606 219.426 355.91 220.49 355.91C220.819 355.91 221.174 355.859 221.554 355.758C221.934 355.631 222.276 355.517 222.58 355.416L223.188 357.772C222.681 357.949 222.124 358.101 221.516 358.228C220.933 358.38 220.351 358.456 219.768 358.456Z" fill="#29175C"/>
<path d="M545.504 341.622L544.63 340.178C545.593 339.545 546.302 338.873 546.758 338.164C547.24 337.429 547.48 336.517 547.48 335.428C547.404 335.453 547.303 335.466 547.176 335.466C546.644 335.466 546.176 335.301 545.77 334.972C545.365 334.643 545.162 334.174 545.162 333.566C545.162 332.907 545.352 332.388 545.732 332.008C546.112 331.628 546.594 331.438 547.176 331.438C547.911 331.438 548.494 331.742 548.924 332.35C549.355 332.933 549.57 333.781 549.57 334.896C549.57 336.416 549.216 337.733 548.506 338.848C547.822 339.937 546.822 340.862 545.504 341.622ZM557.786 358.456C556.468 358.456 555.214 358.215 554.024 357.734C552.833 357.227 551.794 356.619 550.908 355.91L552.466 353.82C553.276 354.453 554.112 354.985 554.974 355.416C555.835 355.821 556.81 356.024 557.9 356.024C559.116 356.024 560.028 355.745 560.636 355.188C561.244 354.605 561.548 353.921 561.548 353.136C561.548 352.503 561.332 351.971 560.902 351.54C560.496 351.109 559.964 350.755 559.306 350.476C558.672 350.172 558.014 349.893 557.33 349.64C556.468 349.311 555.62 348.943 554.784 348.538C553.948 348.107 553.264 347.563 552.732 346.904C552.2 346.22 551.934 345.359 551.934 344.32C551.934 342.825 552.491 341.584 553.606 340.596C554.746 339.583 556.316 339.076 558.318 339.076C559.458 339.076 560.522 339.279 561.51 339.684C562.498 340.089 563.346 340.583 564.056 341.166L562.536 343.142C561.902 342.661 561.244 342.268 560.56 341.964C559.876 341.66 559.128 341.508 558.318 341.508C557.152 341.508 556.291 341.774 555.734 342.306C555.202 342.838 554.936 343.459 554.936 344.168C554.936 344.751 555.126 345.232 555.506 345.612C555.886 345.967 556.38 346.283 556.988 346.562C557.596 346.815 558.242 347.081 558.926 347.36C559.812 347.689 560.686 348.069 561.548 348.5C562.409 348.905 563.118 349.463 563.676 350.172C564.258 350.856 564.55 351.781 564.55 352.946C564.55 353.934 564.284 354.846 563.752 355.682C563.245 356.518 562.485 357.189 561.472 357.696C560.484 358.203 559.255 358.456 557.786 358.456Z" fill="#29175C"/>
<path d="M897.587 358.456C895.282 358.456 893.432 357.62 892.039 355.948C890.646 354.251 889.949 351.869 889.949 348.804C889.949 346.803 890.316 345.08 891.051 343.636C891.811 342.167 892.799 341.039 894.015 340.254C895.256 339.469 896.574 339.076 897.967 339.076C899.031 339.076 899.956 339.266 900.741 339.646C901.526 340.026 902.324 340.545 903.135 341.204L902.983 338.05V330.944H906.137V358H903.553L903.287 355.834H903.173C902.464 356.543 901.628 357.164 900.665 357.696C899.702 358.203 898.676 358.456 897.587 358.456ZM898.271 355.834C899.892 355.834 901.463 354.985 902.983 353.288V343.636C902.198 342.927 901.438 342.433 900.703 342.154C899.994 341.85 899.259 341.698 898.499 341.698C897.511 341.698 896.612 342.002 895.801 342.61C895.016 343.193 894.382 344.016 893.901 345.08C893.42 346.119 893.179 347.347 893.179 348.766C893.179 350.97 893.622 352.705 894.509 353.972C895.396 355.213 896.65 355.834 898.271 355.834ZM919.539 358.456C918.045 358.456 916.639 358.076 915.321 357.316C914.029 356.556 912.978 355.454 912.167 354.01C911.382 352.566 910.989 350.831 910.989 348.804C910.989 346.727 911.382 344.966 912.167 343.522C912.978 342.078 914.029 340.976 915.321 340.216C916.639 339.456 918.045 339.076 919.539 339.076C921.059 339.076 922.465 339.456 923.757 340.216C925.049 340.976 926.088 342.078 926.873 343.522C927.684 344.966 928.089 346.727 928.089 348.804C928.089 350.831 927.684 352.566 926.873 354.01C926.088 355.454 925.049 356.556 923.757 357.316C922.465 358.076 921.059 358.456 919.539 358.456ZM919.539 355.872C921.135 355.872 922.415 355.226 923.377 353.934C924.365 352.617 924.859 350.907 924.859 348.804C924.859 346.676 924.365 344.953 923.377 343.636C922.415 342.319 921.135 341.66 919.539 341.66C917.969 341.66 916.689 342.319 915.701 343.636C914.713 344.953 914.219 346.676 914.219 348.804C914.219 350.907 914.713 352.617 915.701 353.934C916.689 355.226 917.969 355.872 919.539 355.872Z" fill="#29175C"/>
<path d="M1208.18 358.456C1206.21 358.456 1204.83 357.886 1204.04 356.746C1203.28 355.606 1202.9 354.124 1202.9 352.3V342.078H1200.16V339.722L1203.05 339.532L1203.43 334.364H1206.05V339.532H1211.03V342.078H1206.05V352.338C1206.05 353.478 1206.26 354.365 1206.66 354.998C1207.09 355.606 1207.84 355.91 1208.9 355.91C1209.23 355.91 1209.59 355.859 1209.97 355.758C1210.35 355.631 1210.69 355.517 1210.99 355.416L1211.6 357.772C1211.1 357.949 1210.54 358.101 1209.93 358.228C1209.35 358.38 1208.76 358.456 1208.18 358.456ZM1221.87 358.456C1220.38 358.456 1218.97 358.076 1217.65 357.316C1216.36 356.556 1215.31 355.454 1214.5 354.01C1213.71 352.566 1213.32 350.831 1213.32 348.804C1213.32 346.727 1213.71 344.966 1214.5 343.522C1215.31 342.078 1216.36 340.976 1217.65 340.216C1218.97 339.456 1220.38 339.076 1221.87 339.076C1223.39 339.076 1224.8 339.456 1226.09 340.216C1227.38 340.976 1228.42 342.078 1229.2 343.522C1230.01 344.966 1230.42 346.727 1230.42 348.804C1230.42 350.831 1230.01 352.566 1229.2 354.01C1228.42 355.454 1227.38 356.556 1226.09 357.316C1224.8 358.076 1223.39 358.456 1221.87 358.456ZM1221.87 355.872C1223.47 355.872 1224.75 355.226 1225.71 353.934C1226.7 352.617 1227.19 350.907 1227.19 348.804C1227.19 346.676 1226.7 344.953 1225.71 343.636C1224.75 342.319 1223.47 341.66 1221.87 341.66C1220.3 341.66 1219.02 342.319 1218.03 343.636C1217.04 344.953 1216.55 346.676 1216.55 348.804C1216.55 350.907 1217.04 352.617 1218.03 353.934C1219.02 355.226 1220.3 355.872 1221.87 355.872ZM1235.28 358V330.944H1238.36V349.26H1238.48L1246.34 339.532H1249.8L1243.61 346.942L1250.64 358H1247.22L1241.82 349.108L1238.36 353.136V358H1235.28ZM1260.92 358.456C1259.27 358.456 1257.78 358.076 1256.43 357.316C1255.09 356.531 1254.03 355.416 1253.24 353.972C1252.46 352.528 1252.06 350.805 1252.06 348.804C1252.06 346.777 1252.46 345.042 1253.24 343.598C1254.05 342.154 1255.09 341.039 1256.36 340.254C1257.62 339.469 1258.95 339.076 1260.35 339.076C1262.7 339.076 1264.51 339.861 1265.78 341.432C1267.07 343.003 1267.72 345.105 1267.72 347.74C1267.72 348.069 1267.71 348.399 1267.68 348.728C1267.68 349.032 1267.66 349.298 1267.6 349.526H1255.14C1255.27 351.477 1255.88 353.035 1256.96 354.2C1258.08 355.365 1259.52 355.948 1261.3 355.948C1262.18 355.948 1262.99 355.821 1263.73 355.568C1264.49 355.289 1265.21 354.935 1265.89 354.504L1267 356.556C1266.21 357.063 1265.31 357.506 1264.3 357.886C1263.31 358.266 1262.18 358.456 1260.92 358.456ZM1255.1 347.284H1264.98C1264.98 345.409 1264.58 343.991 1263.77 343.028C1262.98 342.04 1261.87 341.546 1260.42 341.546C1259.13 341.546 1257.97 342.053 1256.93 343.066C1255.91 344.054 1255.31 345.46 1255.1 347.284ZM1272.28 358V339.532H1274.87L1275.13 342.192H1275.25C1276.13 341.305 1277.07 340.571 1278.06 339.988C1279.05 339.38 1280.17 339.076 1281.44 339.076C1283.39 339.076 1284.81 339.697 1285.7 340.938C1286.61 342.154 1287.06 343.94 1287.06 346.296V358H1283.95V346.714C1283.95 344.991 1283.67 343.737 1283.11 342.952C1282.55 342.167 1281.67 341.774 1280.45 341.774C1279.51 341.774 1278.67 342.015 1277.91 342.496C1277.17 342.977 1276.34 343.687 1275.4 344.624V358H1272.28ZM1293.06 358V339.532H1296.18V358H1293.06ZM1294.66 335.732C1294.05 335.732 1293.54 335.555 1293.14 335.2C1292.76 334.82 1292.57 334.313 1292.57 333.68C1292.57 333.072 1292.76 332.578 1293.14 332.198C1293.54 331.818 1294.05 331.628 1294.66 331.628C1295.27 331.628 1295.76 331.818 1296.14 332.198C1296.55 332.578 1296.75 333.072 1296.75 333.68C1296.75 334.313 1296.55 334.82 1296.14 335.2C1295.76 335.555 1295.27 335.732 1294.66 335.732ZM1300.48 358V356.328L1310.2 342.078H1301.54V339.532H1314.16V341.204L1304.43 355.454H1314.46V358H1300.48ZM1321.92 358.456C1320.38 358.456 1319.09 358 1318.05 357.088C1317.03 356.151 1316.53 354.859 1316.53 353.212C1316.53 351.185 1317.43 349.64 1319.22 348.576C1321.05 347.487 1323.92 346.727 1327.85 346.296C1327.85 345.511 1327.74 344.763 1327.51 344.054C1327.31 343.345 1326.93 342.775 1326.37 342.344C1325.84 341.888 1325.06 341.66 1324.05 341.66C1322.99 341.66 1321.99 341.863 1321.05 342.268C1320.11 342.673 1319.28 343.129 1318.54 343.636L1317.32 341.47C1318.19 340.913 1319.24 340.381 1320.48 339.874C1321.75 339.342 1323.11 339.076 1324.58 339.076C1326.84 339.076 1328.47 339.773 1329.48 341.166C1330.5 342.534 1331 344.371 1331 346.676V358H1328.42L1328.15 355.796H1328.04C1327.18 356.505 1326.23 357.126 1325.19 357.658C1324.18 358.19 1323.09 358.456 1321.92 358.456ZM1322.83 355.948C1323.72 355.948 1324.56 355.733 1325.34 355.302C1326.13 354.871 1326.96 354.263 1327.85 353.478V348.348C1324.79 348.728 1322.63 349.298 1321.39 350.058C1320.17 350.818 1319.57 351.793 1319.57 352.984C1319.57 354.023 1319.88 354.783 1320.52 355.264C1321.15 355.72 1321.92 355.948 1322.83 355.948ZM1342.11 358.456C1340.13 358.456 1338.75 357.886 1337.97 356.746C1337.21 355.606 1336.83 354.124 1336.83 352.3V342.078H1334.09V339.722L1336.98 339.532L1337.36 334.364H1339.98V339.532H1344.96V342.078H1339.98V352.338C1339.98 353.478 1340.18 354.365 1340.59 354.998C1341.02 355.606 1341.77 355.91 1342.83 355.91C1343.16 355.91 1343.52 355.859 1343.9 355.758C1344.28 355.631 1344.62 355.517 1344.92 355.416L1345.53 357.772C1345.02 357.949 1344.47 358.101 1343.86 358.228C1343.28 358.38 1342.69 358.456 1342.11 358.456ZM1349.14 358V339.532H1352.25V358H1349.14ZM1350.73 335.732C1350.12 335.732 1349.62 335.555 1349.21 335.2C1348.83 334.82 1348.64 334.313 1348.64 333.68C1348.64 333.072 1348.83 332.578 1349.21 332.198C1349.62 331.818 1350.12 331.628 1350.73 331.628C1351.34 331.628 1351.83 331.818 1352.21 332.198C1352.62 332.578 1352.82 333.072 1352.82 333.68C1352.82 334.313 1352.62 334.82 1352.21 335.2C1351.83 335.555 1351.34 335.732 1350.73 335.732ZM1365.67 358.456C1364.17 358.456 1362.77 358.076 1361.45 357.316C1360.16 356.556 1359.11 355.454 1358.3 354.01C1357.51 352.566 1357.12 350.831 1357.12 348.804C1357.12 346.727 1357.51 344.966 1358.3 343.522C1359.11 342.078 1360.16 340.976 1361.45 340.216C1362.77 339.456 1364.17 339.076 1365.67 339.076C1367.19 339.076 1368.6 339.456 1369.89 340.216C1371.18 340.976 1372.22 342.078 1373 343.522C1373.81 344.966 1374.22 346.727 1374.22 348.804C1374.22 350.831 1373.81 352.566 1373 354.01C1372.22 355.454 1371.18 356.556 1369.89 357.316C1368.6 358.076 1367.19 358.456 1365.67 358.456ZM1365.67 355.872C1367.27 355.872 1368.54 355.226 1369.51 353.934C1370.5 352.617 1370.99 350.907 1370.99 348.804C1370.99 346.676 1370.5 344.953 1369.51 343.636C1368.54 342.319 1367.27 341.66 1365.67 341.66C1364.1 341.66 1362.82 342.319 1361.83 343.636C1360.84 344.953 1360.35 346.676 1360.35 348.804C1360.35 350.907 1360.84 352.617 1361.83 353.934C1362.82 355.226 1364.1 355.872 1365.67 355.872ZM1379.08 358V339.532H1381.67L1381.93 342.192H1382.05C1382.93 341.305 1383.87 340.571 1384.86 339.988C1385.85 339.38 1386.97 339.076 1388.24 339.076C1390.19 339.076 1391.61 339.697 1392.5 340.938C1393.41 342.154 1393.86 343.94 1393.86 346.296V358H1390.75V346.714C1390.75 344.991 1390.47 343.737 1389.91 342.952C1389.36 342.167 1388.47 341.774 1387.25 341.774C1386.32 341.774 1385.47 342.015 1384.71 342.496C1383.97 342.977 1383.14 343.687 1382.2 344.624V358H1379.08Z" fill="#29175C"/>
<path d="M1625.42 350.476L1625 336.112L1624.92 332.54H1628.08L1628 336.112L1627.58 350.476H1625.42ZM1626.52 358.456C1625.88 358.456 1625.34 358.241 1624.88 357.81C1624.45 357.354 1624.24 356.784 1624.24 356.1C1624.24 355.365 1624.45 354.783 1624.88 354.352C1625.34 353.896 1625.88 353.668 1626.52 353.668C1627.13 353.668 1627.65 353.896 1628.08 354.352C1628.53 354.783 1628.76 355.365 1628.76 356.1C1628.76 356.784 1628.53 357.354 1628.08 357.81C1627.65 358.241 1627.13 358.456 1626.52 358.456Z" fill="#29175C"/>
<line x1="377.5" y1="297" x2="377.5" y2="391" stroke="#DBCEFF" stroke-width="3"/>
<line x1="733.5" y1="297" x2="733.5" y2="391" stroke="#DBCEFF" stroke-width="3"/>
<line x1="1087.5" y1="297" x2="1087.5" y2="391" stroke="#DBCEFF" stroke-width="3"/>
<line x1="1512.5" y1="297" x2="1512.5" y2="391" stroke="#DBCEFF" stroke-width="3"/>
</svg>
